<mxfile host="Electron" agent="Mozilla/5.0 (Windows NT 10.0; Win64; x64) AppleWebKit/537.36 (KHTML, like Gecko) draw.io/28.1.2 Chrome/138.0.7204.243 Electron/37.4.0 Safari/537.36" version="28.1.2">
  <diagram name="Page-1" id="fjIHQlXBKKGjUWHLyD-N">
    <mxGraphModel dx="307" dy="679" grid="1" gridSize="10" guides="1" tooltips="1" connect="1" arrows="1" fold="1" page="1" pageScale="1" pageWidth="850" pageHeight="1100" math="0" shadow="0">
      <root>
        <mxCell id="0" />
        <mxCell id="1" parent="0" />
        <mxCell id="g47W46cEdyWXe2nyHEvG-1" value="" style="rounded=0;whiteSpace=wrap;html=1;fillColor=none;dashed=1;" parent="1" vertex="1">
          <mxGeometry x="150" y="430" width="180" height="480" as="geometry" />
        </mxCell>
        <mxCell id="g47W46cEdyWXe2nyHEvG-2" value="&lt;font style=&quot;font-size: 20px;&quot;&gt;sources&lt;/font&gt;" style="rounded=1;whiteSpace=wrap;html=1;fillColor=default;strokeColor=none;" parent="1" vertex="1">
          <mxGeometry x="180" y="420" width="120" height="30" as="geometry" />
        </mxCell>
        <mxCell id="g47W46cEdyWXe2nyHEvG-20" style="edgeStyle=orthogonalEdgeStyle;rounded=0;orthogonalLoop=1;jettySize=auto;html=1;entryX=0;entryY=0.5;entryDx=0;entryDy=0;" parent="1" source="g47W46cEdyWXe2nyHEvG-4" target="g47W46cEdyWXe2nyHEvG-16" edge="1">
          <mxGeometry relative="1" as="geometry">
            <Array as="points">
              <mxPoint x="320" y="590" />
              <mxPoint x="320" y="650" />
            </Array>
          </mxGeometry>
        </mxCell>
        <mxCell id="g47W46cEdyWXe2nyHEvG-21" style="edgeStyle=orthogonalEdgeStyle;rounded=0;orthogonalLoop=1;jettySize=auto;html=1;entryX=0;entryY=0.5;entryDx=0;entryDy=0;" parent="1" source="g47W46cEdyWXe2nyHEvG-4" target="g47W46cEdyWXe2nyHEvG-14" edge="1">
          <mxGeometry relative="1" as="geometry">
            <Array as="points">
              <mxPoint x="320" y="590" />
              <mxPoint x="320" y="530" />
            </Array>
          </mxGeometry>
        </mxCell>
        <mxCell id="g47W46cEdyWXe2nyHEvG-27" style="edgeStyle=orthogonalEdgeStyle;rounded=0;orthogonalLoop=1;jettySize=auto;html=1;entryX=0;entryY=0.5;entryDx=0;entryDy=0;" parent="1" source="g47W46cEdyWXe2nyHEvG-4" target="g47W46cEdyWXe2nyHEvG-15" edge="1">
          <mxGeometry relative="1" as="geometry" />
        </mxCell>
        <mxCell id="g47W46cEdyWXe2nyHEvG-4" value="&lt;font style=&quot;font-size: 18px;&quot;&gt;CRM&lt;/font&gt;" style="image;aspect=fixed;html=1;points=[];align=center;fontSize=12;image=img/lib/azure2/general/Folder_Blank.svg;" parent="1" vertex="1">
          <mxGeometry x="207.75" y="563.82" width="64.5" height="52.35" as="geometry" />
        </mxCell>
        <mxCell id="g47W46cEdyWXe2nyHEvG-26" style="edgeStyle=orthogonalEdgeStyle;rounded=0;orthogonalLoop=1;jettySize=auto;html=1;" parent="1" source="g47W46cEdyWXe2nyHEvG-5" target="g47W46cEdyWXe2nyHEvG-24" edge="1">
          <mxGeometry relative="1" as="geometry" />
        </mxCell>
        <mxCell id="g47W46cEdyWXe2nyHEvG-28" style="edgeStyle=orthogonalEdgeStyle;rounded=0;orthogonalLoop=1;jettySize=auto;html=1;entryX=0;entryY=0.5;entryDx=0;entryDy=0;" parent="1" source="g47W46cEdyWXe2nyHEvG-5" target="g47W46cEdyWXe2nyHEvG-23" edge="1">
          <mxGeometry relative="1" as="geometry">
            <Array as="points">
              <mxPoint x="320" y="780" />
              <mxPoint x="320" y="720" />
            </Array>
          </mxGeometry>
        </mxCell>
        <mxCell id="g47W46cEdyWXe2nyHEvG-29" style="edgeStyle=orthogonalEdgeStyle;rounded=0;orthogonalLoop=1;jettySize=auto;html=1;entryX=0;entryY=0.5;entryDx=0;entryDy=0;" parent="1" source="g47W46cEdyWXe2nyHEvG-5" target="g47W46cEdyWXe2nyHEvG-25" edge="1">
          <mxGeometry relative="1" as="geometry">
            <Array as="points">
              <mxPoint x="320" y="780" />
              <mxPoint x="320" y="840" />
            </Array>
          </mxGeometry>
        </mxCell>
        <mxCell id="g47W46cEdyWXe2nyHEvG-5" value="&lt;font style=&quot;font-size: 18px;&quot;&gt;ERP&lt;/font&gt;" style="image;aspect=fixed;html=1;points=[];align=center;fontSize=12;image=img/lib/azure2/general/Folder_Blank.svg;" parent="1" vertex="1">
          <mxGeometry x="207.75" y="753.8199999999999" width="64.5" height="52.35" as="geometry" />
        </mxCell>
        <mxCell id="g47W46cEdyWXe2nyHEvG-6" value="" style="rounded=1;whiteSpace=wrap;html=1;fillStyle=hatch;strokeColor=#d79b00;fillColor=none;gradientColor=none;arcSize=6;" parent="1" vertex="1">
          <mxGeometry x="380" y="470" width="180" height="440" as="geometry" />
        </mxCell>
        <mxCell id="g47W46cEdyWXe2nyHEvG-8" value="&lt;font style=&quot;font-size: 20px; color: rgb(0, 0, 0);&quot;&gt;&lt;b&gt;bronze layer&lt;/b&gt;&lt;/font&gt;" style="rounded=1;whiteSpace=wrap;html=1;fillColor=#ffcd28;strokeColor=#d79b00;gradientColor=#ffa500;" parent="1" vertex="1">
          <mxGeometry x="380" y="410" width="180" height="50" as="geometry" />
        </mxCell>
        <mxCell id="g47W46cEdyWXe2nyHEvG-9" value="" style="rounded=1;whiteSpace=wrap;html=1;fillStyle=hatch;strokeColor=light-dark(#B3B3B3,#BEBEBE);arcSize=7;" parent="1" vertex="1">
          <mxGeometry x="610" y="470" width="180" height="440" as="geometry" />
        </mxCell>
        <mxCell id="g47W46cEdyWXe2nyHEvG-10" value="&lt;font style=&quot;font-size: 20px; color: rgb(1, 1, 1);&quot;&gt;silver layer&lt;/font&gt;" style="rounded=1;whiteSpace=wrap;html=1;fillColor=#f5f5f5;gradientColor=#b3b3b3;strokeColor=#666666;" parent="1" vertex="1">
          <mxGeometry x="610" y="410" width="180" height="50" as="geometry" />
        </mxCell>
        <mxCell id="g47W46cEdyWXe2nyHEvG-11" value="" style="rounded=1;whiteSpace=wrap;html=1;fillStyle=hatch;strokeColor=#d6b656;fillColor=none;gradientColor=none;arcSize=7;" parent="1" vertex="1">
          <mxGeometry x="840" y="470" width="180" height="440" as="geometry" />
        </mxCell>
        <mxCell id="g47W46cEdyWXe2nyHEvG-12" value="&lt;font style=&quot;font-size: 20px; color: rgb(0, 0, 0);&quot;&gt;gold layer&lt;/font&gt;" style="rounded=1;whiteSpace=wrap;html=1;fillColor=#fff2cc;gradientColor=#ffd966;strokeColor=#d6b656;" parent="1" vertex="1">
          <mxGeometry x="840" y="410" width="180" height="50" as="geometry" />
        </mxCell>
        <mxCell id="Vmr0WSY9kQJAGdW7ChXu-13" style="edgeStyle=orthogonalEdgeStyle;rounded=0;orthogonalLoop=1;jettySize=auto;html=1;strokeWidth=3;" edge="1" parent="1" source="g47W46cEdyWXe2nyHEvG-14" target="Vmr0WSY9kQJAGdW7ChXu-1">
          <mxGeometry relative="1" as="geometry" />
        </mxCell>
        <mxCell id="g47W46cEdyWXe2nyHEvG-14" value="&lt;font style=&quot;color: rgb(0, 0, 0); font-size: 16px;&quot;&gt;crm_sales_details&lt;/font&gt;" style="rounded=1;whiteSpace=wrap;html=1;fillColor=#ffcd28;strokeColor=#d79b00;gradientColor=#ffa500;" parent="1" vertex="1">
          <mxGeometry x="390" y="510" width="160" height="40" as="geometry" />
        </mxCell>
        <mxCell id="Vmr0WSY9kQJAGdW7ChXu-12" style="edgeStyle=orthogonalEdgeStyle;rounded=0;orthogonalLoop=1;jettySize=auto;html=1;strokeWidth=3;" edge="1" parent="1" source="g47W46cEdyWXe2nyHEvG-15" target="Vmr0WSY9kQJAGdW7ChXu-2">
          <mxGeometry relative="1" as="geometry" />
        </mxCell>
        <mxCell id="g47W46cEdyWXe2nyHEvG-15" value="&lt;font style=&quot;color: rgb(0, 0, 0); font-size: 16px;&quot;&gt;crm_cust_info&lt;/font&gt;" style="rounded=1;whiteSpace=wrap;html=1;fillColor=#ffcd28;strokeColor=#d79b00;gradientColor=#ffa500;" parent="1" vertex="1">
          <mxGeometry x="390" y="570" width="160" height="40" as="geometry" />
        </mxCell>
        <mxCell id="Vmr0WSY9kQJAGdW7ChXu-11" style="edgeStyle=orthogonalEdgeStyle;rounded=0;orthogonalLoop=1;jettySize=auto;html=1;entryX=0;entryY=0.5;entryDx=0;entryDy=0;strokeWidth=3;" edge="1" parent="1" source="g47W46cEdyWXe2nyHEvG-16" target="Vmr0WSY9kQJAGdW7ChXu-3">
          <mxGeometry relative="1" as="geometry" />
        </mxCell>
        <mxCell id="g47W46cEdyWXe2nyHEvG-16" value="&lt;font style=&quot;color: rgb(0, 0, 0); font-size: 16px;&quot;&gt;crm_prd_info&lt;/font&gt;" style="rounded=1;whiteSpace=wrap;html=1;fillColor=#ffcd28;strokeColor=#d79b00;gradientColor=#ffa500;" parent="1" vertex="1">
          <mxGeometry x="390" y="630" width="160" height="40" as="geometry" />
        </mxCell>
        <mxCell id="Vmr0WSY9kQJAGdW7ChXu-10" style="edgeStyle=orthogonalEdgeStyle;rounded=0;orthogonalLoop=1;jettySize=auto;html=1;entryX=0;entryY=0.5;entryDx=0;entryDy=0;strokeWidth=3;" edge="1" parent="1" source="g47W46cEdyWXe2nyHEvG-23" target="Vmr0WSY9kQJAGdW7ChXu-4">
          <mxGeometry relative="1" as="geometry" />
        </mxCell>
        <mxCell id="g47W46cEdyWXe2nyHEvG-23" value="&lt;font style=&quot;color: rgb(0, 0, 0); font-size: 16px;&quot;&gt;erp_cust_az12&lt;/font&gt;" style="rounded=1;whiteSpace=wrap;html=1;fillColor=#ffcd28;strokeColor=#d79b00;gradientColor=#ffa500;" parent="1" vertex="1">
          <mxGeometry x="390" y="700" width="160" height="40" as="geometry" />
        </mxCell>
        <mxCell id="Vmr0WSY9kQJAGdW7ChXu-9" style="edgeStyle=orthogonalEdgeStyle;rounded=0;orthogonalLoop=1;jettySize=auto;html=1;strokeWidth=3;" edge="1" parent="1" source="g47W46cEdyWXe2nyHEvG-24" target="Vmr0WSY9kQJAGdW7ChXu-5">
          <mxGeometry relative="1" as="geometry" />
        </mxCell>
        <mxCell id="g47W46cEdyWXe2nyHEvG-24" value="&lt;font style=&quot;color: rgb(0, 0, 0); font-size: 16px;&quot;&gt;erp_loc_a101&lt;/font&gt;" style="rounded=1;whiteSpace=wrap;html=1;fillColor=#ffcd28;strokeColor=#d79b00;gradientColor=#ffa500;" parent="1" vertex="1">
          <mxGeometry x="390" y="760" width="160" height="40" as="geometry" />
        </mxCell>
        <mxCell id="Vmr0WSY9kQJAGdW7ChXu-8" style="edgeStyle=orthogonalEdgeStyle;rounded=0;orthogonalLoop=1;jettySize=auto;html=1;entryX=0;entryY=0.5;entryDx=0;entryDy=0;strokeWidth=3;" edge="1" parent="1" source="g47W46cEdyWXe2nyHEvG-25" target="Vmr0WSY9kQJAGdW7ChXu-6">
          <mxGeometry relative="1" as="geometry" />
        </mxCell>
        <mxCell id="g47W46cEdyWXe2nyHEvG-25" value="&lt;font style=&quot;color: rgb(0, 0, 0); font-size: 16px;&quot;&gt;erp_px_cat_g1v2&lt;/font&gt;" style="rounded=1;whiteSpace=wrap;html=1;fillColor=#ffcd28;strokeColor=#d79b00;gradientColor=#ffa500;" parent="1" vertex="1">
          <mxGeometry x="390" y="820" width="160" height="40" as="geometry" />
        </mxCell>
        <mxCell id="Vmr0WSY9kQJAGdW7ChXu-17" style="edgeStyle=orthogonalEdgeStyle;rounded=0;orthogonalLoop=1;jettySize=auto;html=1;entryX=0;entryY=0.5;entryDx=0;entryDy=0;strokeWidth=3;" edge="1" parent="1" source="Vmr0WSY9kQJAGdW7ChXu-1" target="Vmr0WSY9kQJAGdW7ChXu-14">
          <mxGeometry relative="1" as="geometry" />
        </mxCell>
        <mxCell id="Vmr0WSY9kQJAGdW7ChXu-1" value="&lt;font style=&quot;color: rgb(0, 0, 0); font-size: 16px;&quot;&gt;crm_sales_details&lt;/font&gt;" style="rounded=1;whiteSpace=wrap;html=1;fillColor=#f5f5f5;strokeColor=#666666;gradientColor=#b3b3b3;" vertex="1" parent="1">
          <mxGeometry x="620" y="510" width="160" height="40" as="geometry" />
        </mxCell>
        <mxCell id="Vmr0WSY9kQJAGdW7ChXu-18" style="edgeStyle=orthogonalEdgeStyle;rounded=0;orthogonalLoop=1;jettySize=auto;html=1;entryX=0;entryY=0.5;entryDx=0;entryDy=0;strokeWidth=3;" edge="1" parent="1" source="Vmr0WSY9kQJAGdW7ChXu-2" target="Vmr0WSY9kQJAGdW7ChXu-15">
          <mxGeometry relative="1" as="geometry">
            <Array as="points">
              <mxPoint x="810" y="590" />
              <mxPoint x="810" y="640" />
            </Array>
          </mxGeometry>
        </mxCell>
        <mxCell id="Vmr0WSY9kQJAGdW7ChXu-2" value="&lt;font style=&quot;color: rgb(0, 0, 0); font-size: 16px;&quot;&gt;crm_cust_info&lt;/font&gt;" style="rounded=1;whiteSpace=wrap;html=1;fillColor=#f5f5f5;strokeColor=#666666;gradientColor=#b3b3b3;" vertex="1" parent="1">
          <mxGeometry x="620" y="570" width="160" height="40" as="geometry" />
        </mxCell>
        <mxCell id="Vmr0WSY9kQJAGdW7ChXu-26" style="edgeStyle=orthogonalEdgeStyle;rounded=0;orthogonalLoop=1;jettySize=auto;html=1;entryX=0;entryY=0.5;entryDx=0;entryDy=0;strokeWidth=2;" edge="1" parent="1" source="Vmr0WSY9kQJAGdW7ChXu-3" target="Vmr0WSY9kQJAGdW7ChXu-16">
          <mxGeometry relative="1" as="geometry">
            <Array as="points">
              <mxPoint x="830" y="650" />
              <mxPoint x="830" y="840" />
            </Array>
          </mxGeometry>
        </mxCell>
        <mxCell id="Vmr0WSY9kQJAGdW7ChXu-3" value="&lt;font style=&quot;color: rgb(0, 0, 0); font-size: 16px;&quot;&gt;crm_prd_info&lt;/font&gt;" style="rounded=1;whiteSpace=wrap;html=1;fillColor=#f5f5f5;strokeColor=#666666;gradientColor=#b3b3b3;" vertex="1" parent="1">
          <mxGeometry x="620" y="630" width="160" height="40" as="geometry" />
        </mxCell>
        <mxCell id="Vmr0WSY9kQJAGdW7ChXu-24" style="edgeStyle=orthogonalEdgeStyle;rounded=0;orthogonalLoop=1;jettySize=auto;html=1;entryX=0;entryY=0.5;entryDx=0;entryDy=0;strokeWidth=3;" edge="1" parent="1" source="Vmr0WSY9kQJAGdW7ChXu-4" target="Vmr0WSY9kQJAGdW7ChXu-15">
          <mxGeometry relative="1" as="geometry">
            <Array as="points">
              <mxPoint x="810" y="720" />
              <mxPoint x="810" y="640" />
            </Array>
          </mxGeometry>
        </mxCell>
        <mxCell id="Vmr0WSY9kQJAGdW7ChXu-4" value="&lt;font style=&quot;color: rgb(0, 0, 0); font-size: 16px;&quot;&gt;erp_cust_az12&lt;/font&gt;" style="rounded=1;whiteSpace=wrap;html=1;fillColor=#f5f5f5;strokeColor=#666666;gradientColor=#b3b3b3;" vertex="1" parent="1">
          <mxGeometry x="620" y="700" width="160" height="40" as="geometry" />
        </mxCell>
        <mxCell id="Vmr0WSY9kQJAGdW7ChXu-21" style="edgeStyle=orthogonalEdgeStyle;rounded=0;orthogonalLoop=1;jettySize=auto;html=1;entryX=0;entryY=0.5;entryDx=0;entryDy=0;strokeWidth=3;" edge="1" parent="1" source="Vmr0WSY9kQJAGdW7ChXu-5" target="Vmr0WSY9kQJAGdW7ChXu-15">
          <mxGeometry relative="1" as="geometry">
            <Array as="points">
              <mxPoint x="810" y="780" />
              <mxPoint x="810" y="640" />
            </Array>
          </mxGeometry>
        </mxCell>
        <mxCell id="Vmr0WSY9kQJAGdW7ChXu-5" value="&lt;font style=&quot;color: rgb(0, 0, 0); font-size: 16px;&quot;&gt;erp_loc_a101&lt;/font&gt;" style="rounded=1;whiteSpace=wrap;html=1;fillColor=#f5f5f5;strokeColor=#666666;gradientColor=#b3b3b3;" vertex="1" parent="1">
          <mxGeometry x="620" y="760" width="160" height="40" as="geometry" />
        </mxCell>
        <mxCell id="Vmr0WSY9kQJAGdW7ChXu-27" style="edgeStyle=orthogonalEdgeStyle;rounded=0;orthogonalLoop=1;jettySize=auto;html=1;strokeWidth=2;" edge="1" parent="1" source="Vmr0WSY9kQJAGdW7ChXu-6">
          <mxGeometry relative="1" as="geometry">
            <mxPoint x="850" y="840.0000000000002" as="targetPoint" />
          </mxGeometry>
        </mxCell>
        <mxCell id="Vmr0WSY9kQJAGdW7ChXu-6" value="&lt;font style=&quot;color: rgb(0, 0, 0); font-size: 16px;&quot;&gt;erp_px_cat_g1v2&lt;/font&gt;" style="rounded=1;whiteSpace=wrap;html=1;fillColor=#f5f5f5;strokeColor=#666666;gradientColor=#b3b3b3;" vertex="1" parent="1">
          <mxGeometry x="620" y="820" width="160" height="40" as="geometry" />
        </mxCell>
        <mxCell id="Vmr0WSY9kQJAGdW7ChXu-14" value="&lt;font style=&quot;color: rgb(0, 0, 0); font-size: 16px;&quot;&gt;fact_sales&lt;/font&gt;" style="rounded=1;whiteSpace=wrap;html=1;fillColor=#fff2cc;strokeColor=#d6b656;gradientColor=#ffd966;" vertex="1" parent="1">
          <mxGeometry x="850" y="510" width="160" height="40" as="geometry" />
        </mxCell>
        <mxCell id="Vmr0WSY9kQJAGdW7ChXu-15" value="&lt;font style=&quot;color: rgb(0, 0, 0); font-size: 16px;&quot;&gt;dim_customers&lt;/font&gt;" style="rounded=1;whiteSpace=wrap;html=1;fillColor=#fff2cc;strokeColor=#d6b656;gradientColor=#ffd966;" vertex="1" parent="1">
          <mxGeometry x="850" y="620" width="160" height="40" as="geometry" />
        </mxCell>
        <mxCell id="Vmr0WSY9kQJAGdW7ChXu-16" value="&lt;font style=&quot;color: rgb(0, 0, 0); font-size: 16px;&quot;&gt;dim_product&lt;/font&gt;" style="rounded=1;whiteSpace=wrap;html=1;fillColor=#fff2cc;strokeColor=#d6b656;gradientColor=#ffd966;" vertex="1" parent="1">
          <mxGeometry x="850" y="820" width="160" height="40" as="geometry" />
        </mxCell>
      </root>
    </mxGraphModel>
  </diagram>
</mxfile>
